<mxfile host="Electron" agent="Mozilla/5.0 (Macintosh; Intel Mac OS X 10_15_7) AppleWebKit/537.36 (KHTML, like Gecko) draw.io/24.6.4 Chrome/124.0.6367.207 Electron/30.0.6 Safari/537.36" modified="2024-10-31T15:09:42.398Z" version="24.6.4" etag="9KDA0Q2YrnEvGV4cZTAl" type="device">
  <diagram id="C5RBs43oDa-KdzZeNtuy" name="Page-1">
    <mxGraphModel dx="1908" dy="2361" grid="1" gridSize="10" guides="1" tooltips="1" connect="1" arrows="1" fold="1" page="1" pageScale="1" pageWidth="827" pageHeight="1169" math="0" shadow="0">
      <root>
        <mxCell id="WIyWlLk6GJQsqaUBKTNV-0" />
        <mxCell id="WIyWlLk6GJQsqaUBKTNV-1" parent="WIyWlLk6GJQsqaUBKTNV-0" />
        <mxCell id="bL9Zwhyr0T-iqH0LjG1K-3" style="rounded=0;orthogonalLoop=1;jettySize=auto;html=1;endArrow=none;endFill=0;" parent="WIyWlLk6GJQsqaUBKTNV-1" source="bL9Zwhyr0T-iqH0LjG1K-0" target="bL9Zwhyr0T-iqH0LjG1K-2" edge="1">
          <mxGeometry relative="1" as="geometry" />
        </mxCell>
        <mxCell id="bL9Zwhyr0T-iqH0LjG1K-6" style="rounded=0;orthogonalLoop=1;jettySize=auto;html=1;endArrow=none;endFill=0;" parent="WIyWlLk6GJQsqaUBKTNV-1" source="bL9Zwhyr0T-iqH0LjG1K-0" target="bL9Zwhyr0T-iqH0LjG1K-5" edge="1">
          <mxGeometry relative="1" as="geometry" />
        </mxCell>
        <mxCell id="bL9Zwhyr0T-iqH0LjG1K-0" value="Client" style="shape=umlActor;verticalLabelPosition=bottom;verticalAlign=top;html=1;outlineConnect=0;" parent="WIyWlLk6GJQsqaUBKTNV-1" vertex="1">
          <mxGeometry x="210" y="-520" width="30" height="60" as="geometry" />
        </mxCell>
        <mxCell id="bL9Zwhyr0T-iqH0LjG1K-8" style="edgeStyle=none;shape=connector;rounded=0;orthogonalLoop=1;jettySize=auto;html=1;strokeColor=default;align=center;verticalAlign=middle;fontFamily=Helvetica;fontSize=11;fontColor=default;labelBackgroundColor=default;endArrow=none;endFill=0;exitX=0.5;exitY=0.5;exitDx=0;exitDy=0;exitPerimeter=0;" parent="WIyWlLk6GJQsqaUBKTNV-1" source="bL9Zwhyr0T-iqH0LjG1K-0" target="bL9Zwhyr0T-iqH0LjG1K-47" edge="1">
          <mxGeometry relative="1" as="geometry">
            <mxPoint x="240" y="-344.77054303048726" as="sourcePoint" />
          </mxGeometry>
        </mxCell>
        <mxCell id="bL9Zwhyr0T-iqH0LjG1K-2" value="Se connecter" style="ellipse;whiteSpace=wrap;html=1;" parent="WIyWlLk6GJQsqaUBKTNV-1" vertex="1">
          <mxGeometry x="450" y="-690" width="120" height="80" as="geometry" />
        </mxCell>
        <mxCell id="bL9Zwhyr0T-iqH0LjG1K-5" value="Rechercher un produit" style="ellipse;whiteSpace=wrap;html=1;" parent="WIyWlLk6GJQsqaUBKTNV-1" vertex="1">
          <mxGeometry x="414" y="-459" width="120" height="80" as="geometry" />
        </mxCell>
        <mxCell id="bL9Zwhyr0T-iqH0LjG1K-9" value="&lt;font style=&quot;font-size: 25px;&quot;&gt;USE CASE&lt;/font&gt;" style="text;html=1;align=center;verticalAlign=middle;whiteSpace=wrap;rounded=0;fontFamily=Helvetica;fontSize=11;labelBackgroundColor=default;fillColor=#f8cecc;strokeColor=#b85450;" parent="WIyWlLk6GJQsqaUBKTNV-1" vertex="1">
          <mxGeometry x="220" y="-750" width="150" height="80" as="geometry" />
        </mxCell>
        <mxCell id="bL9Zwhyr0T-iqH0LjG1K-47" value="S&#39;inscrire" style="ellipse;whiteSpace=wrap;html=1;" parent="WIyWlLk6GJQsqaUBKTNV-1" vertex="1">
          <mxGeometry x="430" y="-560" width="120" height="80" as="geometry" />
        </mxCell>
      </root>
    </mxGraphModel>
  </diagram>
</mxfile>
